<svg version="1.1" id="Isolation_Mode" xmlns="http://www.w3.org/2000/svg" xmlns:xlink="http://www.w3.org/1999/xlink" x="0px"
	 y="0px" viewBox="0 0 663.4 239.4" enable-background="new 0 0 663.4 239.4" xml:space="preserve">
<ellipse fill-rule="evenodd" clip-rule="evenodd" fill="#00ADEE" cx="115.6" cy="119.7" rx="115.6" ry="119.7"/>
<circle fill-rule="evenodd" clip-rule="evenodd" fill="#D1E187" cx="115.8" cy="91.9" r="60.7"/>
<path fill-rule="evenodd" clip-rule="evenodd" fill="#FFFFFF" d="M112.4,30.4C91.9,32.7,75,41.9,61.5,58.1l30.9,15.3l8.1,23.7
	l26.9-23.4C153.1,54.2,140.9,32.5,112.4,30.4z"/>
<path fill-rule="evenodd" clip-rule="evenodd" fill="#FFFFFF" d="M128.6,74.3l-26,21.7l-19.7,11.3c20.8,10.5,25.4,42.4,52.9,36.7
	c14.7-3.5,28.2-15.2,39.9-38.7C152.8,102.7,150.1,75.1,128.6,74.3z"/>
<path fill-rule="evenodd" clip-rule="evenodd" fill="#2E3191" d="M135.5,143.7c-34.8,3.6-27.7-31-53.2-36.1
	c40.8-7.6,25.5-57.8-21.1-49.2l-8.4,12.4l19.9-0.6c26.6-0.8,27.3,32.2-12.7,28.3v15c35.5-4.1,28.5,48.6,78.9,44.2L135.5,143.7z"/>
<g>
	<path fill="#FFFFFF" d="M75.7,182.5c0.8-0.4,1.4-0.9,2-1.4c0.6-0.6,1-1.2,1.3-2c0.3-0.8,0.5-1.7,0.5-2.7c0-1.5-0.3-2.8-0.8-3.9
		c-0.5-1.1-1.3-2-2.4-2.6c-1-0.7-2.1-1.2-3.3-1.5c-1.2-0.4-2.4-0.6-3.7-0.6c0,0-0.1,0-0.1,0c0,0-0.1,0-0.1,0c0,0-0.1,0-0.1,0
		c0,0-0.1,0-0.1,0c0,0-0.1,0-0.1,0c-0.1,0-0.1,0-0.2,0H57v27.8h7.3V171c0.1,0,0.1,0,0.1,0c0,0,0,0,0.1,0c0,0,0.1,0,0.1,0
		c0,0,0.1,0,0.1,0c0.1,0,0.2,0,0.2,0c0.1,0,0.2,0,0.2,0c0.1,0,0.2,0,0.2,0c0.1,0,0.2,0,0.2,0c0.7,0,1.4,0.1,2.1,0.2
		c0.7,0.1,1.3,0.3,1.9,0.5c0.6,0.2,1.1,0.6,1.5,1.2c0.4,0.6,0.6,1.4,0.7,2.4c0,0,0,0.1,0,0.1c0,0.1,0,0.1,0.1,0.1c0,0.1,0,0.1,0,0.1
		c0,0,0,0.1,0,0.1c0,0.1,0,0.2,0,0.3c0,0.1,0,0.2,0,0.3c0,0.4,0,0.7-0.1,1.1c-0.1,0.4-0.2,0.7-0.3,1.1c-0.1,0.4-0.3,0.7-0.5,1
		c-0.2,0.3-0.5,0.5-0.8,0.8c-0.3,0.2-0.5,0.4-0.7,0.5c-0.2,0.1-0.5,0.2-0.8,0.3c-0.3,0.1-0.6,0.1-0.9,0.1c-0.3,0-0.6,0-0.9,0
		c-0.1,0-0.3,0-0.4,0s-0.2,0-0.3,0c0,0-0.1,0-0.1,0c-0.1,0-0.1,0-0.2,0c0,0-0.1,0-0.1,0c-0.1,0-0.1,0-0.2,0c-0.1,0-0.1,0-0.2,0
		c-0.1,0-0.1,0-0.2,0c0,0-0.1,0-0.1,0c0,0-0.1,0-0.1,0c0,0-0.1,0-0.1,0c0,0-0.1,0-0.1,0l6.6,14.2h8.4l-6.5-11.9
		C74.2,183.2,75,182.9,75.7,182.5z"/>
	<polygon fill="#FFFFFF" points="92,183.1 100.9,183.1 100.9,179.4 92,179.4 92,171.3 101.4,171.3 101.4,167.5 84.5,167.5 
		84.5,195.4 101.9,195.4 101.9,191.6 92,191.6 	"/>
	<path fill="#FFFFFF" d="M126.1,190.7c-0.4,0.3-0.8,0.5-1.2,0.7c-0.4,0.2-0.9,0.4-1.3,0.5c-0.2,0.1-0.4,0.1-0.7,0.2
		c-0.2,0-0.4,0.1-0.7,0.1c-0.3,0-0.5,0.1-0.7,0.1c-0.2,0-0.4,0-0.7,0c-0.1,0-0.1,0-0.2,0c-0.1,0-0.1,0-0.2,0c-0.1,0-0.2,0-0.3-0.1
		c-0.1,0-0.1,0-0.2-0.1c-0.1-0.1-0.3-0.1-0.5-0.1s-0.3-0.1-0.5-0.1c-0.8-0.3-1.5-0.7-2.1-1.3c-0.6-0.6-1.1-1.2-1.5-2
		c-0.4-0.8-0.7-1.6-0.9-2.4c-0.3-0.8-0.4-1.6-0.5-2.5c0-0.1-0.1-0.3-0.1-0.4c0-0.1,0-0.3,0-0.5c0-0.1-0.1-0.3-0.1-0.4
		c0-0.1,0-0.3,0-0.4c0-0.1,0-0.3,0-0.4c0-0.1,0-0.3,0-0.5c0-0.1,0-0.3,0-0.4c0-0.1,0-0.3,0-0.4c0-0.1,0-0.2,0-0.3
		c0-0.1,0-0.2,0.1-0.3c0-0.1,0-0.2,0-0.3c0-0.1,0-0.2,0-0.3c0-0.2,0-0.3,0.1-0.5c0-0.2,0.1-0.3,0.1-0.5c0.1-0.9,0.3-1.8,0.6-2.6
		c0.3-0.8,0.7-1.7,1.2-2.5c0.5-0.8,1.1-1.4,1.9-1.8c0.7-0.5,1.6-0.7,2.6-0.9c1-0.1,1.9-0.1,2.7,0.1c0.8,0.2,1.5,0.6,2.1,1.2
		c0.6,0.5,1.1,1.1,1.6,1.8c0.5,0.7,1,1.4,1.4,2.2l3.5-2.6c-0.8-1.2-1.7-2.2-2.6-3c-0.9-0.8-1.9-1.5-2.9-2c-1-0.5-2.1-0.8-3.4-1
		s-2.5-0.2-4-0.1c-1.9,0.1-3.6,0.6-5.2,1.4c-1.6,0.8-3,1.8-4.2,3.2c-1.2,1.4-2.2,2.9-2.8,4.6c-0.6,1.7-0.9,3.5-0.9,5.5
		c0,2.2,0.4,4.2,1.1,5.9s1.8,3.3,3.3,4.6c1.5,1.3,3.1,2.3,4.8,2.9c1.8,0.6,3.6,0.9,5.7,0.9c1.2,0,2.3-0.1,3.5-0.3
		c1.2-0.2,2.3-0.5,3.4-0.9c1.1-0.4,2.2-1,3.2-1.6c1-0.6,2-1.3,2.8-2.2v-8h-7.3V190.7z"/>
	<polygon fill="#FFFFFF" points="145.3,183.1 154.1,183.1 154.1,179.4 145.3,179.4 145.3,171.3 154.6,171.3 154.6,167.5 
		137.7,167.5 137.7,195.4 155.1,195.4 155.1,191.6 145.3,191.6 	"/>
	<path fill="#FFFFFF" d="M178.3,186c-0.1-0.9-0.3-1.7-0.6-2.4c-0.3-0.7-0.8-1.3-1.4-1.9c-0.6-0.5-1.2-1-1.9-1.5
		c-0.7-0.5-1.4-0.9-2.1-1.2c-0.1-0.1-0.3-0.2-0.5-0.3c-0.2-0.1-0.4-0.2-0.6-0.3c-0.2-0.1-0.4-0.2-0.7-0.3c-0.2-0.1-0.4-0.2-0.7-0.4
		c-0.4-0.2-0.7-0.4-1.1-0.6c-0.4-0.2-0.7-0.5-1.1-0.8c-0.3-0.3-0.6-0.5-0.8-0.9c-0.2-0.3-0.4-0.7-0.4-1c0-0.1-0.1-0.1-0.1-0.2
		c0-0.1,0-0.1,0-0.2c0-0.1,0-0.1,0-0.2c0-0.1,0-0.1,0-0.2c0-0.3,0-0.6,0.1-0.9c0.1-0.3,0.2-0.5,0.3-0.8c0.1-0.3,0.3-0.5,0.5-0.7
		c0.2-0.2,0.4-0.4,0.7-0.5c0.1-0.1,0.3-0.2,0.5-0.2c0.2-0.1,0.3-0.1,0.5-0.1c0.2,0,0.4,0,0.5-0.1c0.2,0,0.3,0,0.5,0
		c0.1,0,0.2,0,0.3,0c0.1,0,0.2,0,0.2,0.1c0.1,0,0.2,0,0.2,0.1c0.1,0,0.2,0,0.3,0.1c0.2,0.1,0.4,0.1,0.5,0.2c0.2,0.1,0.3,0.2,0.5,0.3
		c0.3,0.2,0.6,0.4,0.8,0.7c0.3,0.2,0.5,0.5,0.7,0.8c0.1,0.1,0.2,0.3,0.3,0.4c0.1,0.2,0.2,0.3,0.2,0.4c0.1,0.2,0.1,0.3,0.2,0.5
		c0.1,0.2,0.1,0.3,0.2,0.4l3.1-2.2c-0.5-1-1.1-1.9-1.8-2.6c-0.7-0.7-1.5-1.3-2.4-1.8c-0.9-0.5-1.9-0.8-2.8-0.9c-1-0.2-2-0.2-2.9,0
		c-0.3,0-0.5,0.1-0.7,0.1c-0.2,0.1-0.5,0.1-0.7,0.2c-0.3,0.1-0.5,0.1-0.7,0.2s-0.4,0.2-0.7,0.3c-0.8,0.4-1.5,0.8-2.2,1.4
		c-0.6,0.6-1.2,1.2-1.6,2c-0.5,0.8-0.8,1.6-1,2.4c-0.2,0.8-0.3,1.7-0.3,2.6c0,0.8,0.1,1.6,0.3,2.3c0.2,0.7,0.5,1.4,0.9,2
		c0.4,0.6,0.9,1.1,1.5,1.6c0.5,0.5,1.2,0.9,1.9,1.3c0.1,0.1,0.2,0.1,0.2,0.2c0.1,0.1,0.2,0.1,0.3,0.2c0.1,0.1,0.2,0.2,0.4,0.2
		c0.1,0.1,0.2,0.1,0.4,0.2c0.1,0.1,0.2,0.1,0.4,0.2c0.1,0.1,0.3,0.1,0.4,0.2c0.1,0.1,0.3,0.2,0.4,0.2c0.1,0.1,0.3,0.1,0.4,0.2
		c0.4,0.2,0.7,0.4,1.1,0.7c0.3,0.2,0.7,0.5,1,0.7c0.3,0.3,0.6,0.5,0.9,0.8c0.2,0.3,0.4,0.5,0.6,0.8c0,0.1,0.1,0.1,0.1,0.2
		c0,0.1,0,0.1,0.1,0.2c0,0.1,0.1,0.2,0.1,0.2c0,0.1,0,0.1,0,0.2c0,0.1,0.1,0.2,0.1,0.4c0,0.1,0,0.3,0.1,0.4c0,0.2,0,0.4-0.1,0.7
		c-0.1,0.2-0.1,0.4-0.2,0.7c-0.1,0.2-0.2,0.4-0.3,0.6c-0.1,0.2-0.3,0.4-0.5,0.5c-0.2,0.2-0.4,0.3-0.6,0.4c-0.2,0.1-0.4,0.2-0.6,0.3
		c-0.2,0.1-0.4,0.1-0.7,0.2c-0.2,0-0.4,0-0.7,0c-0.2,0-0.4,0-0.6-0.1c-0.2,0-0.4-0.1-0.5-0.1c-0.2-0.1-0.4-0.1-0.5-0.2
		c-0.2-0.1-0.3-0.2-0.5-0.3c-0.3-0.2-0.6-0.5-0.8-0.7c-0.3-0.3-0.5-0.5-0.7-0.8c-0.2-0.3-0.4-0.6-0.5-0.9c-0.2-0.3-0.3-0.6-0.5-1
		l-3.7,2.3c0.3,0.6,0.7,1.1,1,1.6c0.4,0.5,0.8,0.9,1.2,1.3c0.4,0.4,0.9,0.8,1.4,1.1c0.5,0.3,1.1,0.5,1.7,0.7c0.3,0.1,0.7,0.2,1,0.3
		c0.3,0.1,0.7,0.2,1,0.2c0.3,0.1,0.7,0.1,1,0.1c0.4,0,0.7,0,1.1,0c0.2,0,0.4,0,0.7,0c0.2,0,0.5,0,0.7-0.1c0.2,0,0.4-0.1,0.7-0.1
		c0.2,0,0.4-0.1,0.7-0.1c0.5-0.1,0.9-0.2,1.3-0.4c0.4-0.1,0.8-0.3,1.2-0.5c0.8-0.4,1.4-1,2-1.6c0.6-0.6,1.1-1.3,1.5-2.1
		c0.4-0.8,0.7-1.6,0.8-2.5C178.3,187.8,178.4,186.9,178.3,186z"/>
</g>
<linearGradient id="SVGID_1_" gradientUnits="userSpaceOnUse" x1="135.5029" y1="131.5512" x2="177.2368" y2="131.5512">
	<stop  offset="0" style="stop-color:#FFFFFF"/>
	<stop  offset="0.1057" style="stop-color:#FAFAFA"/>
	<stop  offset="0.2359" style="stop-color:#EBEBEB"/>
	<stop  offset="0.379" style="stop-color:#D2D2D2"/>
	<stop  offset="0.5313" style="stop-color:#AFAFAF"/>
	<stop  offset="0.6911" style="stop-color:#828282"/>
	<stop  offset="0.8543" style="stop-color:#4C4C4C"/>
	<stop  offset="1" style="stop-color:#151515"/>
</linearGradient>
<path fill="url(#SVGID_1_)" d="M177.2,118.6c-8.4,21.1-21.7,33.4-38.3,39.3l-3.5-14.2c18.1-5.1,31.1-18.8,40.2-38.5L177.2,118.6z"/>
<g>
	<path fill="#FFFFFF" d="M659.6,201.8c-0.1-1.8-0.4-3.6-0.9-5.3s-1.4-3.4-2.5-4.9c-1.1-1.6-2.4-2.9-3.9-3.7
		c-1.5-0.9-3.3-1.5-5.3-1.8c-2.7-0.4-5-0.2-7,0.5c-2,0.7-3.7,1.9-5,3.6c-1.3,1.7-2.3,3.5-2.9,5.5c-0.6,1.9-0.9,4-0.8,6.1
		c0.1,2,0.4,3.8,1,5.6c0.6,1.8,1.5,3.5,2.7,5.2c1.2,1.6,2.7,2.9,4.4,3.7c1.8,0.8,3.8,1.2,6,1.3v-0.1c2.4,0,4.6-0.4,6.4-1.2
		c1.8-0.8,3.3-2,4.4-3.6c1.1-1.6,2-3.4,2.6-5.2C659.5,205.7,659.7,203.8,659.6,201.8z M649.8,201.1c0,0.4,0,0.7,0,1v0.1
		c0,0.3,0,0.7,0,1s0,0.8,0,1.3c0,0.2,0,0.5,0,0.7s0,0.5-0.1,0.7c0,0.3,0,0.5,0,0.8c0,0.3-0.1,0.5-0.1,0.7c-0.1,0.7-0.2,1.4-0.3,2.1
		c-0.2,0.7-0.4,1.3-0.7,2c-0.2,0.6-0.5,1.1-0.9,1.5c-0.4,0.4-0.8,0.7-1.3,0.8c-0.7,0.2-1.4,0.2-1.9,0c-0.5-0.2-1-0.5-1.3-1.1
		c-0.3-0.5-0.6-1.1-0.9-1.8c-0.3-0.6-0.4-1.3-0.6-2c-0.1-0.4-0.1-0.7-0.2-1.1s-0.1-0.7-0.2-1c-0.1-0.4-0.1-0.7-0.1-1
		c0-0.3,0-0.5,0-0.8c0,0,0-0.1,0-0.1c-0.1,0-0.1,0-0.1,0c0,0,0-0.1,0-0.1s0-0.1,0-0.2s0-0.1,0-0.2c-0.1-0.4-0.1-0.8-0.1-1.2
		c0-0.5,0-1,0-1.6c0-0.6,0-1.2,0-1.8c0-0.6,0.1-1.2,0.1-1.8c0.1-1,0.2-2,0.4-2.9c0.2-0.9,0.4-1.8,0.7-2.6c0.3-0.8,0.7-1.4,1.2-1.9
		c0.5-0.4,1.1-0.6,1.9-0.6s1.3,0.2,1.8,0.5c0.5,0.3,0.9,0.9,1.2,1.5c0.3,0.7,0.5,1.4,0.8,2.2c0.2,0.8,0.4,1.5,0.5,2.4
		c0,0.2,0,0.4,0,0.5c0,0.2,0,0.4,0,0.6c0.1,0.4,0.1,0.7,0.1,1.1c0,0.3,0,0.7,0,1C649.8,200.2,649.8,200.7,649.8,201.1z"/>
	<polygon fill="#FFFFFF" points="612,216.6 621,216.6 621,191.9 628.5,191.9 628.5,186.9 604.6,186.9 604.6,191.9 612,191.9 
		612,216.6 612,216.6 	"/>
	<path fill="#FFFFFF" d="M587.5,216.6h13.3v-4.5l-7.3,0.1c-0.1,0-0.1,0-0.2,0c-0.1,0-0.1,0-0.3,0h-0.2c-0.1,0-0.1,0-0.3-0.1
		c-0.1,0-0.2,0-0.3,0c-0.1,0-0.2-0.1-0.3-0.1c-0.1,0-0.1-0.1-0.2-0.1c-0.1,0-0.1,0-0.2,0c-0.2-0.1-0.3-0.2-0.4-0.3
		c-0.1-0.1-0.2-0.3-0.3-0.5c-0.1-0.2-0.1-0.5-0.2-0.8c-0.1-0.3-0.1-0.6-0.1-0.9c-0.1-0.3-0.1-0.6-0.1-1c0-0.3,0-0.6,0-1
		c0-0.1,0-0.2,0-0.2s0-0.1,0-0.2c0,0,0-0.1,0-0.2c0-0.1,0-0.2,0-0.2c0-0.1,0-0.2,0-0.2s0-0.1,0-0.2c0,0,0-0.1,0-0.2
		c0-0.1,0-0.2,0-0.2c0-0.1,0-0.2,0-0.2c0-0.1,0-0.1,0.1-0.2c0-0.1,0-0.2,0-0.2c0-0.1,0-0.1,0-0.2c0-0.1,0-0.2,0-0.2s0-0.1,0-0.2
		c0,0,0-0.1,0-0.2c0-0.1,0-0.2,0-0.2h8.7v-4.5l-8.7,0.1c0-0.1,0-0.2,0-0.3c0-0.1,0-0.2,0-0.4c0-0.1,0-0.3,0-0.4s0-0.3,0-0.4
		c0-0.1,0-0.2,0-0.3c0-0.1,0-0.2,0-0.3c-0.1-0.1-0.1-0.2-0.1-0.3c0-0.1,0-0.2,0-0.3c0-0.2,0-0.5,0-0.7s0-0.5,0.1-0.7
		c0-0.1,0-0.3,0-0.5c0-0.2,0-0.4,0-0.5c0-0.2,0-0.4,0-0.5c0-0.2,0-0.3,0.1-0.5c0.1-0.4,0.2-0.7,0.3-1c0.2-0.3,0.4-0.4,0.6-0.6
		c0.3-0.1,0.6-0.2,0.9-0.3c0.3-0.1,0.6-0.1,0.9-0.2h6.9v-4.5l-12.9,0.1c-1.1,0-2,0.1-2.8,0.4c-0.8,0.3-1.4,0.7-1.8,1.3
		c-0.5,0.5-0.8,1.2-1,2.1c-0.2,0.8-0.3,1.8-0.3,2.9v16.2c0,1.1,0.1,2.1,0.3,3c0.2,0.8,0.5,1.5,1,2.1c0.5,0.5,1.1,1,1.8,1.2
		C585.5,216.5,586.4,216.6,587.5,216.6L587.5,216.6L587.5,216.6L587.5,216.6L587.5,216.6L587.5,216.6z"/>
	<path fill="#FFFFFF" d="M551,216.6h8.5v-25.5c0.7,0,1.3,0,2,0.1c0.6,0.1,1.2,0.3,1.8,0.5c0.6,0.2,1,0.6,1.4,1.1
		c0.3,0.5,0.6,1.2,0.9,2.1c0.2,1.1,0.2,2,0.1,2.8c-0.1,0.8-0.4,1.5-0.9,2.1c-0.5,0.6-1,1.1-1.7,1.4c-0.7,0.4-1.5,0.6-2.4,0.8v0.6
		l6.2,14h10.6l-8.1-13.3c0.8-0.3,1.5-0.6,2.2-1.1c0.7-0.4,1.2-1,1.7-1.5c0.5-0.6,0.8-1.3,1-2.1c0.2-0.8,0.3-1.7,0.3-2.7
		c0-1.7-0.3-3.1-0.9-4.3c-0.6-1.2-1.4-2-2.5-2.6c-1.1-0.6-2.3-1.1-3.5-1.4c-1.2-0.3-2.5-0.5-3.9-0.5c-0.1,0-0.1,0-0.2,0
		s-0.1,0-0.2,0c-0.1,0-0.1,0-0.2,0c-0.1,0-0.1-0.1-0.2-0.1H551V216.6L551,216.6L551,216.6L551,216.6L551,216.6L551,216.6L551,216.6z
		"/>
	<path fill="#FFFFFF" d="M545.4,183.5c-0.1-0.8-0.4-1.6-0.6-2.4c-0.3-0.8-0.6-1.5-1-2.3c-0.4-0.7-0.9-1.4-1.4-2
		c-0.7-0.8-1.5-1.5-2.4-2.2c-0.9-0.6-1.8-1.1-2.7-1.5c-1-0.4-1.9-0.7-2.9-0.9c-1-0.2-2-0.4-3-0.5c-0.2,0-0.5,0-0.7,0
		c-0.2,0-0.4,0-0.6,0c-0.2,0-0.5,0-0.7,0c-0.2,0-0.4-0.1-0.6-0.1H512v44.9h11.3v-18.2l9.1,0.1c1.6,0,3.2-0.2,4.7-0.7
		c1.5-0.5,2.8-1.1,4.1-2.1c1.3-0.9,2.3-2.1,3.1-3.5c0.7-1.4,1.2-3.1,1.3-5c0-0.1,0-0.2,0-0.3c0-0.1,0-0.2,0-0.3c0-0.1,0-0.2,0-0.3
		s0-0.2,0-0.4C545.6,185.1,545.5,184.3,545.4,183.5z M533.6,189.6c-0.5,1-1.1,1.7-2,2.1c-0.9,0.4-1.9,0.7-2.9,0.9
		c-1,0.2-2,0.3-3.1,0.3c-0.1,0-0.2,0-0.3,0c-0.1,0-0.2,0-0.3,0c-0.1,0-0.1,0-0.2,0c-0.1,0-0.1,0-0.2,0c-0.1,0-0.2,0-0.3,0
		c-0.1,0-0.2,0-0.3,0c-0.1,0-0.1,0-0.2,0s-0.1,0-0.2,0h-0.1c-0.1,0-0.1,0-0.1-0.1v-15.5c0.1,0,0.1,0,0.2,0h0.1c0.1,0,0.1,0,0.2,0
		c0.3,0,0.6,0,0.8,0c0.3,0,0.5,0,0.8,0.1c0.3,0,0.6,0,0.8,0c0.3,0,0.5,0,0.8,0c0.6,0,1.1,0.2,1.7,0.3c0.5,0.2,1.1,0.4,1.6,0.7
		c0.6,0.3,1.2,0.7,1.7,1.3c0.5,0.5,0.9,1.1,1.1,1.8c0.3,0.6,0.6,1.3,0.8,2c0.2,0.7,0.3,1.4,0.3,2.2
		C534.2,187.3,534,188.6,533.6,189.6z"/>
	<path fill="#FFFFFF" d="M485.5,201.8c-0.1-1.8-0.4-3.6-0.9-5.3c-0.6-1.7-1.4-3.4-2.5-4.9c-1.1-1.6-2.4-2.9-3.9-3.7
		c-1.5-0.9-3.3-1.5-5.3-1.8c-2.7-0.4-5-0.2-7,0.5c-2,0.7-3.7,1.9-5,3.6c-1.3,1.7-2.3,3.5-2.9,5.5c-0.6,1.9-0.9,4-0.8,6.1
		c0.1,2,0.4,3.8,1,5.6c0.6,1.8,1.5,3.5,2.7,5.2c1.2,1.6,2.7,2.9,4.4,3.7c1.8,0.8,3.8,1.2,6,1.3v-0.1c2.4,0,4.6-0.4,6.4-1.2
		c1.8-0.8,3.3-2,4.4-3.6c1.1-1.6,2-3.4,2.6-5.2C485.3,205.7,485.6,203.8,485.5,201.8z M475.7,201.1c0,0.4,0,0.7,0,1v0.1
		c0,0.3,0,0.7,0,1s0,0.8,0,1.3c0,0.2,0,0.5,0,0.7s0,0.5-0.1,0.7c0,0.3,0,0.5,0,0.8c0,0.3-0.1,0.5-0.1,0.7c-0.1,0.7-0.2,1.4-0.3,2.1
		c-0.2,0.7-0.4,1.3-0.7,2c-0.2,0.6-0.5,1.1-0.9,1.5c-0.4,0.4-0.8,0.7-1.3,0.8c-0.7,0.2-1.4,0.2-1.9,0c-0.5-0.2-1-0.5-1.3-1.1
		c-0.3-0.5-0.6-1.1-0.9-1.8c-0.3-0.6-0.4-1.3-0.6-2c-0.1-0.4-0.1-0.7-0.2-1.1c-0.1-0.3-0.1-0.7-0.2-1c-0.1-0.4-0.1-0.7-0.1-1
		c0-0.3,0-0.5,0-0.8c0,0,0-0.1,0-0.1c-0.1,0-0.1,0-0.1,0c0,0,0-0.1,0-0.1s0-0.1,0-0.2s0-0.1,0-0.2c-0.1-0.4-0.1-0.8-0.1-1.2
		c0-0.5,0-1,0-1.6c0-0.6,0-1.2,0-1.8c0-0.6,0.1-1.2,0.1-1.8c0.1-1,0.2-2,0.4-2.9c0.2-0.9,0.4-1.8,0.7-2.6c0.3-0.8,0.7-1.4,1.2-1.9
		c0.5-0.4,1.1-0.6,1.9-0.6c0.7,0,1.3,0.2,1.8,0.5s0.9,0.9,1.2,1.5c0.3,0.7,0.5,1.4,0.8,2.2c0.2,0.8,0.4,1.5,0.5,2.4
		c0,0.2,0,0.4,0,0.5c0,0.2,0,0.4,0,0.6c0.1,0.4,0.1,0.7,0.1,1.1c0,0.3,0,0.7,0,1C475.7,200.2,475.7,200.7,475.7,201.1z"/>
	<path fill="#FFFFFF" d="M446,162.7l-2.7,0.1c-0.3,0.8-0.7,1.4-1.2,1.9c-0.5,0.4-1,0.6-1.6,0.5c-0.6,0-1.2-0.1-1.8-0.3
		c-0.7-0.1-1.3-0.3-1.9-0.5c-0.1,0-0.1,0-0.2,0c-0.1,0-0.1,0-0.2-0.1c-0.1,0-0.1,0-0.2,0c-0.1,0-0.1,0-0.2,0c-0.1,0-0.2-0.1-0.3-0.1
		c-0.1,0-0.2-0.1-0.3-0.1c-0.7-0.2-1.5-0.3-2.3-0.2c-0.8,0.1-1.5,0.2-2.3,0.5c-0.7,0.3-1.3,0.9-1.8,2c-0.5,1-1,2.4-1.4,4.2l2.7,0.1
		c0.3-0.8,0.7-1.3,1.2-1.7c0.4-0.3,0.9-0.5,1.5-0.4c0.6,0,1.2,0.1,1.8,0.2c0.6,0.1,1.3,0.2,1.9,0.4c0.1,0,0.2,0.1,0.4,0.1
		c0.1,0,0.3,0.1,0.4,0.1c0.1,0,0.2,0.1,0.4,0.1c0.1,0,0.3,0,0.4,0c0.8,0.2,1.6,0.3,2.3,0.2c0.7,0,1.4-0.2,2.1-0.5
		c0.7-0.3,1.4-1,1.9-2.1C445.1,166,445.6,164.5,446,162.7L446,162.7L446,162.7z"/>
	<path fill="#FFFFFF" d="M446.7,191.9c-0.2-0.8-0.5-1.5-0.8-2.2c-0.3-0.7-0.7-1.4-1.1-2c-0.4-0.6-0.9-1.1-1.5-1.4
		c-0.6-0.3-1.4-0.4-2.3-0.4c-0.9,0-1.7,0.2-2.3,0.6c-0.6,0.3-1.2,0.8-1.6,1.5c-0.5,0.6-0.8,1.3-1.1,2.1c-0.3,0.7-0.6,1.5-0.8,2.3
		l-7.2,24.3h4.7l1.5-5.4h9.2l1.5,5.4h9.5L446.7,191.9z M435.1,207.1l3.6-12.9l3.3,12.9H435.1z"/>
	<path fill="#FFFFFF" d="M400.6,216.6h8.5v-25.5c0.7,0,1.3,0,2,0.1c0.6,0.1,1.2,0.3,1.8,0.5c0.6,0.2,1,0.6,1.4,1.1
		c0.3,0.5,0.6,1.2,0.9,2.1c0.2,1.1,0.2,2,0.1,2.8c-0.1,0.8-0.4,1.5-0.9,2.1c-0.5,0.6-1,1.1-1.7,1.4c-0.7,0.4-1.5,0.6-2.4,0.8v0.6
		l6.2,14H427l-8.1-13.3c0.8-0.3,1.5-0.6,2.2-1.1c0.7-0.4,1.2-1,1.7-1.5c0.5-0.6,0.8-1.3,1-2.1c0.2-0.8,0.3-1.7,0.3-2.7
		c0-1.7-0.3-3.1-0.9-4.3c-0.6-1.2-1.4-2-2.5-2.6c-1.1-0.6-2.3-1.1-3.5-1.4c-1.2-0.3-2.5-0.5-3.9-0.5c-0.1,0-0.1,0-0.2,0
		c-0.1,0-0.1,0-0.2,0c-0.1,0-0.1,0-0.2,0c-0.1,0-0.1-0.1-0.2-0.1h-12.1V216.6L400.6,216.6L400.6,216.6L400.6,216.6L400.6,216.6
		L400.6,216.6L400.6,216.6z"/>
	<path fill="#FFFFFF" d="M383,174.6L383,174.6c0,0.9,0.1,1.6,0.4,2.2c0.3,0.6,0.6,1.1,1.1,1.5c0.5,0.4,1,0.7,1.5,0.9
		c0.6,0.2,1.1,0.3,1.7,0.3c0.5,0,0.9,0,1.4-0.1c0.5-0.1,0.9-0.4,1.3-0.7c0.5-0.3,0.8-0.7,1.1-1.1c0.3-0.5,0.5-1,0.7-1.7
		c0.3-1,0.3-1.8,0.2-2.6c-0.2-0.8-0.5-1.4-1-2c-0.5-0.6-1.1-1-1.7-1.2c-0.6-0.3-1.3-0.4-2-0.5c-0.6,0-1.1,0.1-1.7,0.3
		c-0.5,0.2-1.1,0.5-1.6,0.9s-0.9,0.9-1.1,1.6C383.1,173.1,383,173.8,383,174.6L383,174.6z"/>
	<polygon fill="#FFFFFF" points="383.3,216.6 392.2,216.6 392.2,186.9 383.3,186.9 383.3,216.6 383.3,216.6 	"/>
	<path fill="#FFFFFF" d="M363,216.6h13.3v-4.5l-7.3,0.1c-0.1,0-0.1,0-0.2,0c-0.1,0-0.1,0-0.3,0h-0.2c-0.1,0-0.1,0-0.3-0.1
		c-0.1,0-0.2,0-0.3,0c-0.1,0-0.2-0.1-0.3-0.1c-0.1,0-0.1-0.1-0.2-0.1c-0.1,0-0.1,0-0.2,0c-0.2-0.1-0.3-0.2-0.4-0.3s-0.2-0.3-0.3-0.5
		c-0.1-0.2-0.1-0.5-0.2-0.8c-0.1-0.3-0.1-0.6-0.1-0.9c-0.1-0.3-0.1-0.6-0.1-1c0-0.3,0-0.6,0-1c0-0.1,0-0.2,0-0.2s0-0.1,0-0.2
		c0,0,0-0.1,0-0.2c0-0.1,0-0.2,0-0.2c0-0.1,0-0.2,0-0.2s0-0.1,0-0.2c0,0,0-0.1,0-0.2c0-0.1,0-0.2,0-0.2c0-0.1,0-0.2,0-0.2
		c0-0.1,0-0.1,0.1-0.2c0-0.1,0-0.2,0-0.2c0-0.1,0-0.1,0-0.2c0-0.1,0-0.2,0-0.2s0-0.1,0-0.2c0,0,0-0.1,0-0.2c0-0.1,0-0.2,0-0.2h8.7
		v-4.5l-8.7,0.1c0-0.1,0-0.2,0-0.3c0-0.1,0-0.2,0-0.4c0-0.1,0-0.3,0-0.4s0-0.3,0-0.4c0-0.1,0-0.2,0-0.3c0-0.1,0-0.2,0-0.3
		c-0.1-0.1-0.1-0.2-0.1-0.3c0-0.1,0-0.2,0-0.3c0-0.2,0-0.5,0-0.7s0-0.5,0.1-0.7c0-0.1,0-0.3,0-0.5c0-0.2,0-0.4,0-0.5
		c0-0.2,0-0.4,0-0.5c0-0.2,0-0.3,0.1-0.5c0.1-0.4,0.2-0.7,0.3-1c0.2-0.3,0.4-0.4,0.6-0.6c0.3-0.1,0.6-0.2,0.9-0.3
		c0.3-0.1,0.6-0.1,0.9-0.2h6.9v-4.5l-12.9,0.1c-1.1,0-2,0.1-2.8,0.4c-0.8,0.3-1.4,0.7-1.8,1.3c-0.5,0.5-0.8,1.2-1,2.1
		c-0.2,0.8-0.3,1.8-0.3,2.9v16.2c0,1.1,0.1,2.1,0.3,3c0.2,0.8,0.5,1.5,1,2.1c0.5,0.5,1.1,1,1.8,1.2C361,216.5,361.9,216.6,363,216.6
		L363,216.6L363,216.6L363,216.6L363,216.6L363,216.6z"/>
	<path fill="#FFFFFF" d="M350.8,198.4c-0.3-1.3-0.7-2.5-1.3-3.7c-0.6-1.2-1.3-2.2-2.1-3.2c-0.8-0.9-1.8-1.7-2.9-2.3
		c-0.7-0.4-1.5-0.8-2.2-1c-0.7-0.3-1.5-0.5-2.3-0.6c-0.7-0.1-1.5-0.3-2.3-0.3s-1.5-0.2-2.3-0.2c-0.1,0-0.2,0-0.3,0
		c-0.1,0-0.2,0-0.3-0.1c-0.1,0-0.2,0-0.3,0s-0.2,0-0.3,0c-0.2,0-0.5,0-0.7,0c-0.2,0-0.4,0-0.6-0.1v-18.3h-9v48h11.6
		c2.2,0,4.3-0.3,6.1-0.8c1.9-0.5,3.6-1.3,5.1-2.4c1.5-1.1,2.6-2.5,3.4-4.4c0.8-1.9,1.1-4.1,1.1-6.8
		C351.2,200.9,351.1,199.6,350.8,198.4z M341,206.4c-0.3,1.3-0.7,2.4-1.4,3.3c-0.6,0.9-1.4,1.5-2.6,2c-1.1,0.5-2.5,0.7-4.2,0.8
		v-21.4c1.6,0.1,3,0.4,4.2,0.9c1.1,0.5,2,1.2,2.6,2c0.6,0.9,1.1,2,1.4,3.3c0.3,1.3,0.4,2.9,0.4,4.6
		C341.4,203.6,341.3,205.1,341,206.4z"/>
	<path fill="#FFFFFF" d="M306.4,174.6L306.4,174.6c0,0.9,0.1,1.6,0.4,2.2c0.3,0.6,0.6,1.1,1.1,1.5c0.5,0.4,1,0.7,1.5,0.9
		c0.6,0.2,1.1,0.3,1.7,0.3c0.5,0,0.9,0,1.4-0.1c0.5-0.1,0.9-0.4,1.3-0.7c0.5-0.3,0.8-0.7,1.1-1.1c0.3-0.5,0.5-1,0.7-1.7
		c0.3-1,0.3-1.8,0.2-2.6s-0.5-1.4-1-2c-0.5-0.6-1.1-1-1.7-1.2c-0.6-0.3-1.3-0.4-2-0.5c-0.6,0-1.1,0.1-1.7,0.3
		c-0.5,0.2-1.1,0.5-1.6,0.9s-0.9,0.9-1.1,1.6C306.6,173.1,306.4,173.8,306.4,174.6L306.4,174.6z"/>
	<polygon fill="#FFFFFF" points="306.7,216.6 315.6,216.6 315.6,186.9 306.7,186.9 306.7,216.6 306.7,216.6 	"/>
	<path fill="#FFFFFF" d="M265,216.6h11.3v-39.2c0.1,0,0.2,0,0.2,0c0,0,0.1,0,0.1,0c0.1,0,0.1,0,0.2,0c0.1,0,0.1,0,0.2,0
		c0.1,0,0.2,0,0.4,0c0.1,0,0.3,0,0.4,0c0.1,0,0.2,0,0.4,0c0.1,0,0.3,0,0.4,0c1.1,0,2.2,0.2,3.3,0.3c1,0.2,2,0.5,2.9,0.8
		c1,0.3,1.7,1,2.3,1.9c0.6,1,0.9,2.2,1.1,3.8c0,0,0,0.1,0,0.2c0,0.1,0,0.2,0.1,0.2c0,0.1,0,0.2,0,0.2s0,0.1,0,0.2c0,0.1,0,0.3,0,0.4
		c0,0.1,0,0.3,0,0.4c0,0.6-0.1,1.2-0.2,1.8c-0.1,0.6-0.3,1.2-0.5,1.8c-0.2,0.6-0.5,1.1-0.9,1.6c-0.3,0.5-0.7,0.9-1.2,1.2
		c-0.4,0.3-0.8,0.6-1.1,0.8c-0.4,0.2-0.8,0.3-1.2,0.4c-0.5,0.1-0.9,0.2-1.4,0.2c-0.5,0-0.9,0.1-1.4,0.1c-0.2,0-0.4,0.1-0.6,0.1
		c-0.2,0-0.3,0-0.4,0c-0.1,0-0.1,0-0.2,0c-0.1,0-0.2,0-0.3-0.1c-0.1,0-0.1,0-0.2,0c-0.1,0-0.2,0-0.3,0c-0.1,0-0.2,0-0.3,0
		c-0.1,0-0.2,0-0.3,0c-0.1,0-0.1,0-0.2,0c-0.1,0-0.1,0-0.2,0c-0.1,0-0.1,0-0.2,0c-0.1,0-0.1,0-0.2,0l10.2,22.8h13l-10-19.2
		c1.4-0.4,2.6-0.9,3.8-1.5c1.2-0.7,2.2-1.4,3.1-2.3c0.9-0.9,1.6-2,2-3.3c0.5-1.3,0.7-2.7,0.8-4.4c0-2.5-0.4-4.6-1.2-6.4
		c-0.8-1.8-2-3.2-3.7-4.2c-1.6-1.1-3.3-1.9-5.1-2.4c-1.8-0.6-3.7-0.9-5.7-1c-0.1,0-0.1,0-0.2,0c-0.1,0-0.1,0-0.2,0
		c-0.1,0-0.1,0-0.2,0c-0.1,0-0.1,0-0.2,0c-0.1,0-0.1,0-0.2,0c-0.1,0-0.2,0-0.3-0.1H265V216.6L265,216.6L265,216.6L265,216.6
		L265,216.6z"/>
</g>
<path fill-rule="evenodd" clip-rule="evenodd" fill="#D1E187" d="M264.3,154.7v-2.9h398.2v2.9H264.3z"/>
<g>
	<path fill="#FFFFFF" d="M612.2,115.1l-12.3,8.1c1.1,2,2.2,3.8,3.4,5.6c1.2,1.7,2.5,3.3,4,4.7c1.4,1.5,3,2.7,4.7,3.8
		c1.7,1,3.6,1.9,5.6,2.4c1.1,0.4,2.2,0.7,3.3,1c1.1,0.3,2.2,0.5,3.4,0.7c1.1,0.2,2.2,0.3,3.4,0.4c1.2,0.1,2.4,0.1,3.6,0.1
		c0.7,0,1.4,0,2.2-0.1c0.7-0.1,1.5-0.1,2.4-0.2c0.7-0.1,1.4-0.2,2.2-0.4c0.7-0.1,1.4-0.3,2.2-0.5c1.6-0.4,3-0.8,4.4-1.3
		c1.4-0.5,2.7-1.1,3.9-1.8c2.5-1.5,4.8-3.3,6.7-5.5c1.9-2.2,3.6-4.6,4.9-7.4c1.3-2.8,2.2-5.6,2.7-8.6c0.5-3,0.6-6,0.4-9
		c-0.2-3.2-0.9-6-2-8.4c-1.1-2.5-2.7-4.6-4.7-6.5c-1.9-1.9-4-3.6-6.2-5.2c-2.2-1.6-4.5-3-6.9-4.3c-0.5-0.3-1.1-0.6-1.7-0.9
		c-0.7-0.3-1.4-0.6-2.1-1c-0.7-0.3-1.4-0.7-2.2-1.1c-0.7-0.4-1.4-0.9-2.2-1.3c-1.2-0.7-2.4-1.4-3.7-2.2c-1.3-0.8-2.4-1.7-3.5-2.7
		c-1.1-0.9-2-1.9-2.7-3c-0.7-1.1-1.2-2.3-1.5-3.6c-0.1-0.2-0.2-0.4-0.2-0.6c0-0.2,0-0.4,0-0.6c0-0.2,0-0.4,0-0.6c0-0.2,0-0.4,0-0.6
		c0-1.1,0.1-2.1,0.3-3c0.2-0.9,0.5-1.9,1-2.7c0.5-0.9,1.1-1.7,1.7-2.4c0.7-0.7,1.4-1.4,2.3-1.9c0.5-0.3,1-0.5,1.5-0.7
		c0.5-0.2,1.1-0.3,1.5-0.4c0.6-0.1,1.2-0.2,1.7-0.2c0.5,0,1.1-0.1,1.7-0.1c0.4,0,0.7,0,1,0.1c0.3,0.1,0.6,0.1,0.8,0.2
		c0.2,0.1,0.5,0.2,0.8,0.2c0.3,0.1,0.6,0.1,1,0.2c0.6,0.2,1.2,0.4,1.8,0.7c0.6,0.3,1.1,0.6,1.6,0.9c1,0.7,1.9,1.5,2.7,2.3
		c0.8,0.8,1.6,1.8,2.4,2.9c0.4,0.5,0.7,1,1,1.6c0.3,0.5,0.6,1.1,0.8,1.6c0.2,0.6,0.5,1.2,0.7,1.7c0.2,0.5,0.5,1.1,0.7,1.6l10.1-7.5
		c-1.7-3.6-3.7-6.6-6.1-9.1c-2.4-2.5-5-4.6-8.1-6.1c-3-1.6-6.1-2.6-9.3-3.2c-3.2-0.5-6.4-0.6-9.7-0.1c-0.8,0.1-1.7,0.2-2.4,0.4
		c-0.8,0.2-1.5,0.4-2.3,0.6c-0.8,0.2-1.6,0.4-2.4,0.7c-0.7,0.3-1.4,0.6-2.2,0.9c-2.7,1.3-5,2.9-7.2,4.8c-2.1,1.9-3.9,4.2-5.3,6.9
		c-1.6,2.7-2.7,5.4-3.4,8.2c-0.7,2.8-1.1,5.8-1.1,9c0,2.9,0.4,5.5,1.1,8c0.7,2.5,1.7,4.7,3.1,6.8c1.4,2.1,3.1,3.9,4.9,5.5
		c1.8,1.6,3.9,3.1,6.2,4.5c0.2,0.2,0.5,0.4,0.8,0.6c0.3,0.2,0.6,0.4,1,0.6c0.4,0.3,0.8,0.5,1.2,0.7c0.4,0.2,0.8,0.4,1.2,0.6
		c0.4,0.2,0.8,0.4,1.3,0.7c0.5,0.2,0.9,0.5,1.3,0.7c0.5,0.3,1,0.6,1.4,0.8c0.5,0.2,1,0.5,1.4,0.7c1.2,0.7,2.4,1.5,3.5,2.3
		c1.1,0.8,2.3,1.7,3.3,2.4c1.1,0.9,2,1.8,2.8,2.7c0.8,0.9,1.4,1.8,1.9,2.8c0.1,0.2,0.2,0.4,0.3,0.6c0.1,0.2,0.2,0.4,0.3,0.6
		c0.1,0.3,0.2,0.5,0.3,0.7c0.1,0.2,0.1,0.4,0.1,0.6c0.1,0.4,0.2,0.8,0.3,1.3c0.1,0.4,0.1,0.9,0.3,1.4c0,0.8-0.1,1.6-0.4,2.3
		c-0.2,0.7-0.5,1.5-0.7,2.3c-0.2,0.7-0.6,1.4-1,2.1c-0.4,0.7-0.9,1.3-1.5,1.8c-0.6,0.6-1.2,1.1-1.9,1.6c-0.7,0.4-1.4,0.8-2.1,1
		c-0.7,0.3-1.4,0.5-2.2,0.6c-0.7,0.1-1.4,0.1-2.2,0c-0.7,0-1.4-0.1-2-0.2c-0.6-0.1-1.2-0.3-1.8-0.5c-0.6-0.2-1.2-0.5-1.7-0.8
		c-0.5-0.3-1.1-0.7-1.7-1.1c-1-0.8-1.9-1.6-2.7-2.5c-0.8-0.9-1.6-1.8-2.2-2.8c-0.6-1.1-1.2-2.2-1.7-3.3
		C613.2,117.4,612.7,116.3,612.2,115.1L612.2,115.1L612.2,115.1z"/>
	<polygon fill="#FFFFFF" points="529.6,139.7 586.9,139.7 586.9,126.6 554.4,126.6 554.4,97.2 583.6,97.2 583.6,84.2 554.4,84.2 
		554.4,56 585.2,56 585.2,43 529.6,43 529.6,139.7 529.6,139.7 	"/>
	<path fill="#FFFFFF" d="M515.3,124.4V96.6h-24.1v27.1c-1.3,1-2.7,1.9-4.1,2.6c-1.4,0.7-2.9,1.4-4.4,1.9c-0.7,0.3-1.4,0.5-2.2,0.7
		c-0.7,0.1-1.4,0.3-2.2,0.4c-0.8,0.1-1.6,0.2-2.4,0.2c-0.7,0.1-1.4,0-2.2-0.1c-0.2,0-0.5,0-0.7-0.1c-0.2,0-0.5-0.1-0.7-0.1
		c-0.4-0.1-0.7-0.2-0.9-0.2c-0.2,0-0.5-0.1-0.7-0.2c-0.5-0.2-1-0.4-1.5-0.5s-1.1-0.3-1.5-0.5c-2.7-1.1-5-2.6-6.9-4.5
		c-1.9-1.9-3.6-4.2-4.9-6.9c-1.2-2.7-2.2-5.4-3.1-8.2c-0.8-2.8-1.4-5.7-1.8-8.7c-0.1-0.5-0.2-1-0.3-1.5c-0.1-0.5-0.1-1-0.1-1.6
		c-0.1-0.5-0.2-1-0.2-1.5c0-0.5,0-1,0-1.5c0-0.5,0-1-0.1-1.5c-0.1-0.5-0.1-1-0.1-1.6c0-0.5,0-1,0.1-1.5c0.1-0.5,0.1-1,0.1-1.5
		c0-0.3,0-0.6,0-0.9c0-0.3,0.1-0.6,0.2-0.9c0-0.3,0-0.6,0-0.9c0-0.3,0-0.6,0-0.9c0-0.6,0.1-1.2,0.2-1.8c0.1-0.6,0.2-1.2,0.4-1.8
		c0.4-3.2,1.1-6.2,2.1-9.1c1-2.9,2.3-5.7,3.9-8.5c1.7-2.7,3.7-4.8,6.2-6.4c2.4-1.6,5.3-2.6,8.5-3c3.3-0.4,6.2-0.2,8.8,0.5
		c2.6,0.7,4.9,2.1,7,4.1c1.9,1.9,3.7,4,5.4,6.3c1.7,2.3,3.3,4.9,4.7,7.6l11.4-8.9c-2.7-4.1-5.5-7.7-8.5-10.6c-3-2.9-6.2-5.3-9.6-7
		c-3.4-1.7-7.1-2.9-11-3.6c-4-0.7-8.3-0.8-13-0.3c-6.3,0.5-12,2.1-17.1,4.7c-5.1,2.7-9.8,6.4-13.9,11.1c-4.1,4.7-7.2,10-9.1,15.8
		c-2,5.8-3,12.2-3,19.1c0,7.6,1.2,14.4,3.5,20.5c2.4,6.1,5.9,11.4,10.8,16.1c4.8,4.5,10.1,7.9,15.9,10.1c5.8,2.2,12,3.2,18.7,3
		c3.9-0.1,7.7-0.5,11.5-1.2c3.8-0.7,7.6-1.7,11.3-3.1c3.6-1.5,7.1-3.3,10.4-5.5C509.3,129.8,512.4,127.3,515.3,124.4L515.3,124.4
		L515.3,124.4z"/>
	<polygon fill="#FFFFFF" points="354.3,139.7 411.6,139.7 411.6,126.6 379.1,126.6 379.1,97.2 408.3,97.2 408.3,84.2 379.1,84.2 
		379.1,56 409.9,56 409.9,43 354.3,43 354.3,139.7 354.3,139.7 	"/>
	<path fill="#FFFFFF" d="M263.6,139.7h24.1V55.2c0.2,0,0.4,0,0.5,0c0.1,0,0.2,0,0.3,0c0.1,0,0.2,0,0.4,0c0.1,0,0.2,0,0.4,0
		c0.2,0,0.5,0,0.8,0c0.3,0,0.6,0,0.8,0c0.2,0,0.5,0,0.8,0c0.3,0,0.6,0,0.8,0c2.4,0.1,4.7,0.3,7,0.7c2.2,0.4,4.3,1,6.2,1.8
		c2.1,0.7,3.7,2.1,4.9,4.1c1.2,2.1,2,4.8,2.4,8.3c0,0.1,0,0.2,0,0.4c0,0.2,0.1,0.3,0.2,0.4c0,0.2,0,0.4,0,0.5c0,0.1,0,0.3,0,0.5
		c0,0.3,0,0.6,0,0.9c0,0.3,0,0.6,0,0.9c0,1.3-0.1,2.6-0.4,3.9c-0.2,1.3-0.6,2.6-1.1,3.8c-0.5,1.3-1.1,2.4-1.8,3.4
		c-0.7,1-1.6,1.9-2.5,2.7c-0.8,0.7-1.7,1.2-2.4,1.6c-0.8,0.4-1.7,0.7-2.6,0.9c-1,0.2-1.9,0.3-2.9,0.4c-1,0.1-1.9,0.1-2.9,0.1
		c-0.5,0.1-0.9,0.1-1.3,0.1c-0.4,0-0.7,0-0.9,0c-0.1,0-0.3,0-0.5,0c-0.2,0-0.4,0-0.6-0.1c-0.1,0-0.3,0-0.5,0s-0.4,0-0.6,0
		c-0.2,0-0.5,0-0.6,0c-0.2,0-0.4,0-0.6,0c-0.1,0-0.2,0-0.4,0c-0.1,0-0.2,0-0.4,0c-0.1,0-0.2,0-0.4-0.1c-0.1,0-0.2-0.1-0.4-0.1
		l21.7,49.1h27.7l-21.4-41.4c2.9-0.8,5.6-1.9,8.1-3.3c2.5-1.4,4.7-3.1,6.6-5c1.9-2,3.4-4.3,4.3-7c1-2.7,1.5-5.9,1.6-9.5
		c0-5.3-0.8-9.9-2.5-13.7c-1.7-3.8-4.3-6.8-7.8-9.1c-3.4-2.3-7-4-10.8-5.3c-3.8-1.2-7.8-1.9-12-2.1c-0.1,0-0.2,0-0.4,0
		c-0.1,0-0.2,0-0.4,0c-0.1,0-0.2,0-0.4,0c-0.1,0-0.2,0-0.4,0c-0.1,0-0.3,0-0.5,0c-0.2,0-0.4,0-0.6-0.1h-38.8V139.7L263.6,139.7
		L263.6,139.7L263.6,139.7L263.6,139.7z"/>
</g>
</svg>
